<svg width="588" height="444" viewBox="0 0 588 444" fill="none" xmlns="http://www.w3.org/2000/svg">
<rect opacity="0.88" width="588" height="444" fill="#F3F4F6"/>
<g clip-path="url(#clip0_10_109)">
<mask id="mask0_10_109" style="mask-type:luminance" maskUnits="userSpaceOnUse" x="0" y="0" width="588" height="444">
<path d="M588 0H0V444H588V0Z" fill="white"/>
</mask>
<g mask="url(#mask0_10_109)">
<path d="M576 0H12C5.37258 0 0 5.37258 0 12V432C0 438.627 5.37258 444 12 444H576C582.627 444 588 438.627 588 432V12C588 5.37258 582.627 0 576 0Z" fill="#F3F4F6"/>
<path d="M163 161H74C61.8497 161 52 170.85 52 183V272C52 284.15 61.8497 294 74 294H163C175.15 294 185 284.15 185 272V183C185 170.85 175.15 161 163 161Z" fill="#F9FAFB"/>
<path d="M6 161H-83C-95.1503 161 -105 170.85 -105 183V272C-105 284.15 -95.1503 294 -83 294H6C18.1503 294 28 284.15 28 272V183C28 170.85 18.1503 161 6 161Z" fill="#F9FAFB"/>
<path d="M514 161H425C412.85 161 403 170.85 403 183V272C403 284.15 412.85 294 425 294H514C526.15 294 536 284.15 536 272V183C536 170.85 526.15 161 514 161Z" fill="#F9FAFB"/>
<path d="M671 161H582C569.85 161 560 170.85 560 183V272C560 284.15 569.85 294 582 294H671C683.15 294 693 284.15 693 272V183C693 170.85 683.15 161 671 161Z" fill="#F9FAFB"/>
</g>
<path d="M357 143.323H231C218.85 143.323 209 153.173 209 165.323V291.707C209 303.857 218.85 313.707 231 313.707H357C369.15 313.707 379 303.857 379 291.707V165.323C379 153.173 369.15 143.323 357 143.323Z" fill="#E5E7EB"/>
<path d="M357 143.323H231C218.85 143.323 209 153.173 209 165.323V291.707C209 303.857 218.85 313.707 231 313.707H357C369.15 313.707 379 303.857 379 291.707V165.323C379 153.173 369.15 143.323 357 143.323Z" fill="url(#paint0_linear_10_109)"/>
<path d="M283.333 245.168C283.333 232.786 286.264 229.008 291.918 225.336C296.63 222.293 300.189 219.669 300.189 215.367C300.189 211.484 297.048 208.861 293.174 208.861C289.091 208.861 285.532 211.904 285.427 216.416H267C267.209 200.256 279.04 193.436 293.279 193.436C308.984 193.436 320.501 200.466 320.501 214.318C320.501 223.237 315.685 228.589 308.46 232.786C303.016 236.039 300.294 239.082 300.294 245.168V246.847H283.333V245.168ZM292.023 271.612C286.369 271.612 281.762 267.1 281.867 261.433C281.762 255.872 286.369 251.359 292.023 251.359C297.362 251.359 302.179 255.872 302.179 261.433C302.179 267.1 297.362 271.612 292.023 271.612Z" fill="#D1D5DB"/>
<path d="M434.046 350.47C436.894 353.325 441.517 353.33 444.372 350.482C447.227 347.633 447.232 343.01 444.384 340.155L434.046 350.47ZM390.831 307.158L434.046 350.47L444.384 340.155L401.169 296.843L390.831 307.158Z" fill="#3692FF"/>
<path d="M410.986 263.738C410.986 293.013 387.313 316.716 358.144 316.716C328.976 316.716 305.302 293.013 305.302 263.738C305.302 234.464 328.976 210.76 358.144 210.76C387.313 210.76 410.986 234.464 410.986 263.738Z" stroke="black" stroke-width="14.6041"/>
</g>
<defs>
<linearGradient id="paint0_linear_10_109" x1="236" y1="150.84" x2="357.369" y2="325.477" gradientUnits="userSpaceOnUse">
<stop stop-color="#BFD5FF"/>
<stop offset="1" stop-color="#E5E7EB" stop-opacity="0"/>
</linearGradient>
<clipPath id="clip0_10_109">
<rect width="588" height="444" fill="white"/>
</clipPath>
</defs>
</svg>
