<svg xmlns="http://www.w3.org/2000/svg" version="1.1" xmlns:xlink="http://www.w3.org/1999/xlink" xmlns:svgjs="http://svgjs.dev/svgjs" width="120" height="120"><svg width="120" height="120" viewBox="0 0 120 120" fill="none" xmlns="http://www.w3.org/2000/svg">
<rect width="120" height="120" fill="#3692FF"></rect>
<path d="M58.405 28.8299C60.1111 34.7259 55.5999 41.223 50.4288 42.7295C45.2576 44.236 38.1929 41.1114 36.4868 35.2153C34.7806 29.3192 38.3623 21.1497 43.5334 19.6431C50.4288 17.6344 56.6987 22.9337 58.405 28.8299Z" fill="#222327"></path>
<path d="M61.2486 28.8299C59.5425 34.7259 64.0537 41.223 69.2248 42.7295C74.3959 44.236 81.4607 41.1114 83.1668 35.2153C84.8729 29.3192 81.2913 21.1497 76.1202 19.6431C69.2248 17.6344 62.9547 22.9337 61.2486 28.8299Z" fill="#222327"></path>
<path d="M93.2683 71.9041C93.2683 86.9011 78.5632 92.4756 58.5045 92.4756C38.4459 92.4756 24.0735 86.9011 24.0735 71.9041C24.0735 54.4595 38.4459 38.9897 58.5045 38.9897C78.5632 38.9897 93.2683 53.1428 93.2683 71.9041Z" fill="#F3D6DD"></path>
<path d="M51.8647 68.9434C51.8647 73.8552 48.712 79.2433 44.3063 79.2433C39.9007 79.2433 32.7839 75.2413 32.7839 67.9042C32.7839 61.0119 40.4722 58.5606 48.4168 59.8192C53.2861 60.5906 51.8647 64.0317 51.8647 68.9434Z" fill="#222327"></path>
<path d="M48.1792 68.4474C48.1792 69.1841 47.9577 69.7814 46.8497 69.7814C45.7418 69.7814 45.5203 69.1841 45.5203 68.4474C45.5203 67.7106 45.9633 67.1133 46.8497 67.1133C47.736 67.1133 48.1792 67.7106 48.1792 68.4474Z" fill="white"></path>
<path d="M65.2654 68.9434C65.2654 73.8552 68.418 79.2433 72.8236 79.2433C77.2293 79.2433 84.3461 75.2413 84.3461 67.9042C84.3461 61.0119 76.6577 58.5606 68.7132 59.8192C63.844 60.5906 65.2654 64.0317 65.2654 68.9434Z" fill="#222327"></path>
<path d="M68.9548 68.4474C68.9548 69.1841 69.1764 69.7814 70.2843 69.7814C71.3923 69.7814 71.6138 69.1841 71.6138 68.4474C71.6138 67.7106 71.1706 67.1133 70.2843 67.1133C69.3979 67.1133 68.9548 67.7106 68.9548 68.4474Z" fill="white"></path>
<path d="M53.4872 76.0477C53.2189 75.6561 52.6841 75.5562 52.2925 75.8244C51.9009 76.0927 51.801 76.6277 52.0692 77.0193L53.4872 76.0477ZM58.4163 74.9906L59.2293 74.712C59.1103 74.3645 58.7836 74.1311 58.4163 74.1311C58.049 74.1311 57.7224 74.3645 57.6033 74.712L58.4163 74.9906ZM64.7633 77.0193C65.0316 76.6277 64.9316 76.0927 64.5402 75.8244C64.1486 75.5562 63.6137 75.6561 63.3454 76.0477L64.7633 77.0193ZM52.0692 77.0193C52.3067 77.3657 52.7379 77.8303 53.3162 78.2139C53.8999 78.601 54.6795 78.9357 55.5973 78.9357V77.2169C55.1055 77.2169 54.6519 77.0372 54.2664 76.7816C53.8757 76.5223 53.6022 76.2155 53.4872 76.0477L52.0692 77.0193ZM55.5973 78.9357C56.7266 78.9357 57.5667 78.1301 58.0895 77.4365C58.6415 76.704 59.0316 75.8461 59.2293 75.2691L57.6033 74.712C57.4485 75.1635 57.1339 75.8486 56.7169 76.4019C56.2706 76.9939 55.8773 77.2169 55.5973 77.2169V78.9357ZM57.6033 75.2691C57.8009 75.8461 58.191 76.704 58.743 77.4365C59.2658 78.1301 60.1059 78.9357 61.2354 78.9357V77.2169C60.9552 77.2169 60.5619 76.9939 60.1157 76.4019C59.6986 75.8486 59.384 75.1635 59.2293 74.712L57.6033 75.2691ZM61.2354 78.9357C62.1531 78.9357 62.9328 78.601 63.5164 78.2139C64.0946 77.8303 64.5259 77.3657 64.7633 77.0193L63.3454 76.0477C63.2305 76.2155 62.957 76.5223 62.5662 76.7816C62.1808 77.0372 61.7272 77.2169 61.2354 77.2169V78.9357Z" fill="#222327"></path>
<path d="M63.1086 74.1972C63.1086 74.9121 59.8896 75.822 58.8062 76.1081C58.5747 76.1692 58.336 76.1692 58.1044 76.1081C57.021 75.822 53.802 74.9121 53.802 74.1972C53.802 73.3377 56.3749 72.4186 58.4553 72.4186C60.5357 72.4186 63.1086 73.3377 63.1086 74.1972Z" fill="#222327"></path>
<path d="M57.8989 51.3335C44.9679 51.3335 40.2158 46.7907 39.447 44.1335L45.5976 37.4478L58.924 35.1335L77.3759 44.1335C76.2653 46.2764 70.8441 51.3335 57.8989 51.3335Z" fill="#222327"></path>
<path fill-rule="evenodd" clip-rule="evenodd" d="M59.6886 99.9341C86.4102 99.9341 106 92.4029 106 72.1422C106 46.7958 86.4102 27.6749 59.6886 27.6749C32.9669 27.6749 13.8203 48.5746 13.8203 72.1422C13.8203 92.4029 32.9669 99.9341 59.6886 99.9341ZM58.6382 92.1533C78.294 92.1533 92.7038 86.6381 92.7038 71.801C92.7038 53.2398 78.294 39.2374 58.6382 39.2374C38.9823 39.2374 24.8986 54.5423 24.8986 71.801C24.8986 86.6381 38.9823 92.1533 58.6382 92.1533Z" fill="white"></path>
</svg><style>@media (prefers-color-scheme: light) { :root { filter: none; } }
@media (prefers-color-scheme: dark) { :root { filter: none; } }
</style></svg>